<?xml version="1.0" encoding="UTF-8" standalone="no"?>
<!DOCTYPE svg PUBLIC "-//W3C//DTD SVG 1.1//EN" "http://www.w3.org/Graphics/SVG/1.1/DTD/svg11.dtd">
<svg width="100%" height="100%" viewBox="0 0 29 28" version="1.1" xmlns="http://www.w3.org/2000/svg" xmlns:xlink="http://www.w3.org/1999/xlink" xml:space="preserve" xmlns:serif="http://www.serif.com/" style="fill-rule:evenodd;clip-rule:evenodd;stroke-linejoin:round;stroke-miterlimit:2;">
    <g transform="matrix(1,0,0,1,-0.421093,-66.534)">
        <g id="Calendar_icon" transform="matrix(1,0,0,1,0.399985,66.5159)">
            <rect x="0.021" y="0.018" width="28.004" height="27.983" style="fill:none;"/>
            <g transform="matrix(1,0,0,1,0.0211084,0.0180717)">
                <g>
                    <g>
                        <g>
                            <path id="e3p8D1puBC" d="M2,14C2,7.38 7.38,2 14,2C20.62,2 26,7.38 26,14C26,20.62 20.62,26 14,26C7.38,26 2,20.62 2,14Z" style="fill:rgb(124,148,100);fill-rule:nonzero;"/>
                        </g>
                    </g>
                    <g transform="matrix(1,0,0,1,0.270974,-0.621423)">
                        <path id="a3KOthfRgP" d="M20.92,7.95L20.95,7.96L21.03,8L21.1,8.05L21.16,8.11L21.19,8.15L21.21,8.18L21.23,8.22L21.25,8.25L21.27,8.34L21.28,8.39L21.28,20.82L21.27,20.87L21.25,20.95L21.19,21.07L21.07,21.19L20.95,21.25L20.92,21.26L20.87,21.27L20.83,21.27L20.78,21.28L7.22,21.28L7.18,21.27L7.13,21.27L7.08,21.26L7.05,21.25L6.93,21.19L6.81,21.07L6.75,20.95L6.73,20.87L6.72,20.82L6.72,8.39L6.73,8.34L6.75,8.25L6.77,8.22L6.79,8.18L6.81,8.15L6.84,8.11L6.9,8.05L6.97,8L7.05,7.96L7.08,7.95L7.18,7.93L20.83,7.93L20.87,7.94L20.92,7.95ZM9.029,19.324L18.631,19.324L18.631,10.36L9.029,10.36L9.029,19.324ZM9.993,14.307L9.993,11.22L13.012,11.22L13.012,14.307L9.993,14.307ZM9.15,7.93L9.15,6.72L10.36,6.72L10.36,7.93L9.15,7.93ZM17.64,7.93L17.64,6.72L18.85,6.72L18.85,7.93L17.64,7.93Z" style="fill:white;fill-rule:nonzero;"/>
                        <path id="a3KOthfRgP1" serif:id="a3KOthfRgP" d="M20.92,7.95L20.95,7.96L21.03,8L21.1,8.05L21.16,8.11L21.19,8.15L21.21,8.18L21.23,8.22L21.25,8.25L21.27,8.34L21.28,8.39L21.28,20.82L21.27,20.87L21.25,20.95L21.19,21.07L21.07,21.19L20.95,21.25L20.92,21.26L20.87,21.27L20.83,21.27L20.78,21.28L7.22,21.28L7.18,21.27L7.13,21.27L7.08,21.26L7.05,21.25L6.93,21.19L6.81,21.07L6.75,20.95L6.73,20.87L6.72,20.82L6.72,8.39L6.73,8.34L6.75,8.25L6.77,8.22L6.79,8.18L6.81,8.15L6.84,8.11L6.9,8.05L6.97,8L7.05,7.96L7.08,7.95L7.18,7.93L20.83,7.93L20.87,7.94L20.92,7.95ZM9.029,19.324L18.631,19.324L18.631,10.36L9.029,10.36L9.029,19.324ZM14.441,14.32L14.441,11.233L17.46,11.233L17.46,14.32L14.441,14.32ZM9.15,7.93L9.15,6.72L10.36,6.72L10.36,7.93L9.15,7.93ZM17.64,7.93L17.64,6.72L18.85,6.72L18.85,7.93L17.64,7.93Z" style="fill:white;fill-rule:nonzero;"/>
                        <path id="a3KOthfRgP2" serif:id="a3KOthfRgP" d="M20.92,7.95L20.95,7.96L21.03,8L21.1,8.05L21.16,8.11L21.19,8.15L21.21,8.18L21.23,8.22L21.25,8.25L21.27,8.34L21.28,8.39L21.28,20.82L21.27,20.87L21.25,20.95L21.19,21.07L21.07,21.19L20.95,21.25L20.92,21.26L20.87,21.27L20.83,21.27L20.78,21.28L7.22,21.28L7.18,21.27L7.13,21.27L7.08,21.26L7.05,21.25L6.93,21.19L6.81,21.07L6.75,20.95L6.73,20.87L6.72,20.82L6.72,8.39L6.73,8.34L6.75,8.25L6.77,8.22L6.79,8.18L6.81,8.15L6.84,8.11L6.9,8.05L6.97,8L7.05,7.96L7.08,7.95L7.18,7.93L20.83,7.93L20.87,7.94L20.92,7.95ZM9.029,19.324L18.631,19.324L18.631,10.36L9.029,10.36L9.029,19.324ZM9.954,18.467L9.954,15.38L12.973,15.38L12.973,18.467L9.954,18.467ZM9.15,7.93L9.15,6.72L10.36,6.72L10.36,7.93L9.15,7.93ZM17.64,7.93L17.64,6.72L18.85,6.72L18.85,7.93L17.64,7.93Z" style="fill:white;fill-rule:nonzero;"/>
                    </g>
                </g>
            </g>
        </g>
    </g>
</svg>
