<?xml version="1.0" encoding="UTF-8" standalone="no"?>
<!DOCTYPE svg PUBLIC "-//W3C//DTD SVG 1.1//EN" "http://www.w3.org/Graphics/SVG/1.1/DTD/svg11.dtd">
<svg width="100%" height="100%" viewBox="0 0 29 28" version="1.1" xmlns="http://www.w3.org/2000/svg" xmlns:xlink="http://www.w3.org/1999/xlink" xml:space="preserve" xmlns:serif="http://www.serif.com/" style="fill-rule:evenodd;clip-rule:evenodd;stroke-linejoin:round;stroke-miterlimit:2;">
    <g transform="matrix(1,0,0,1,-0.391771,-0.115573)">
        <g id="Collapse1_icon" transform="matrix(1,0,0,1,0.370663,0.0975014)">
            <rect x="0.021" y="0.018" width="28.004" height="27.983" style="fill:none;"/>
            <g transform="matrix(1,0,0,1,0.0211084,0.0180717)">
                <g>
                    <g>
                        <g>
                            <path id="e3p8D1puBC" d="M2,14C2,7.38 7.38,2 14,2C20.62,2 26,7.38 26,14C26,20.62 20.62,26 14,26C7.38,26 2,20.62 2,14Z" style="fill:rgb(124,148,100);fill-rule:nonzero;"/>
                        </g>
                    </g>
                    <g transform="matrix(1,0,0,1,-0.0211084,-0.0180717)">
                        <g transform="matrix(1,0,0,1,-97.9255,-0.17154)">
                            <path d="M103.445,14.068L110.413,6.996C110.537,6.87 110.737,6.87 110.861,6.996L112.509,8.677C112.632,8.803 112.632,9.008 112.509,9.134L107.43,14.314L112.509,19.494C112.632,19.62 112.632,19.825 112.509,19.951L110.861,21.632C110.737,21.758 110.537,21.758 110.413,21.632L103.445,14.56C103.379,14.492 103.348,14.402 103.353,14.314C103.348,14.226 103.379,14.136 103.445,14.068Z" style="fill:white;"/>
                        </g>
                        <g transform="matrix(1,0,0,1,-97.9255,-0.17154)">
                            <path d="M110.105,14.068L117.073,6.996C117.196,6.87 117.397,6.87 117.52,6.996L119.169,8.677C119.292,8.803 119.292,9.008 119.168,9.134L114.09,14.314L119.168,19.494C119.292,19.62 119.292,19.825 119.169,19.951L117.52,21.632C117.397,21.758 117.196,21.758 117.073,21.632L110.105,14.56C110.039,14.492 110.008,14.402 110.013,14.314C110.008,14.226 110.039,14.136 110.105,14.068Z" style="fill:white;"/>
                        </g>
                    </g>
                </g>
            </g>
        </g>
    </g>
</svg>
