<?xml version="1.0" encoding="UTF-8" standalone="no"?>
<!DOCTYPE svg PUBLIC "-//W3C//DTD SVG 1.1//EN" "http://www.w3.org/Graphics/SVG/1.1/DTD/svg11.dtd">
<svg width="100%" height="100%" viewBox="0 0 29 28" version="1.1" xmlns="http://www.w3.org/2000/svg" xmlns:xlink="http://www.w3.org/1999/xlink" xml:space="preserve" xmlns:serif="http://www.serif.com/" style="fill-rule:evenodd;clip-rule:evenodd;stroke-linejoin:round;stroke-miterlimit:2;">
    <g transform="matrix(1,0,0,1,-0.329481,-131.349)">
        <g id="Gallery_icon" transform="matrix(1,0,0,1,0.308373,131.331)">
            <rect x="0.021" y="0.018" width="28.004" height="27.983" style="fill:none;"/>
            <g transform="matrix(1,0,0,1,0.0211084,0.0180717)">
                <g>
                    <g>
                        <g>
                            <path id="e3p8D1puBC" d="M2,14C2,7.38 7.38,2 14,2C20.62,2 26,7.38 26,14C26,20.62 20.62,26 14,26C7.38,26 2,20.62 2,14Z" style="fill:rgb(124,148,100);fill-rule:nonzero;"/>
                        </g>
                    </g>
                    <g>
                        <g transform="matrix(1,0,0,1,0.674543,0.26573)">
                            <g transform="matrix(1,0,0,1,-62.9591,0)">
                                <path d="M82.3,10.895C82.3,10.515 81.992,10.206 81.612,10.206L68.578,10.206C68.198,10.206 67.89,10.515 67.89,10.895L67.89,19.472C67.89,19.852 68.198,20.161 68.578,20.161L81.612,20.161C81.992,20.161 82.3,19.852 82.3,19.472L82.3,10.895ZM80.345,12.251C80.345,11.98 80.125,11.76 79.854,11.76L70.567,11.76C70.297,11.76 70.077,11.98 70.077,12.251L70.077,18.362C70.077,18.633 70.297,18.853 70.567,18.853L79.854,18.853C80.125,18.853 80.345,18.633 80.345,18.362L80.345,12.251Z" style="fill:white;"/>
                            </g>
                            <g transform="matrix(1,0,0,1,-62.9591,-0.30661)">
                                <path d="M79.64,18.381L70.503,18.381C70.874,17.358 71.577,16.869 73.036,16.738C74.29,16.626 75.657,17.21 76.325,17.178C77.15,16.804 77.331,16.383 78.098,16.364C78.676,16.35 79.481,17.166 79.64,18.381" style="fill:white;"/>
                            </g>
                            <g transform="matrix(1,0,0,1,-63.1226,-0.572338)">
                                <circle cx="72.744" cy="14.489" r="1.216" style="fill:white;"/>
                            </g>
                        </g>
                        <g transform="matrix(1,0,0,1,-62.5741,-1.54433)">
                            <path d="M70.889,11.226L70.889,10.072C70.889,9.727 71.169,9.447 71.514,9.447L84.664,9.447C85.009,9.447 85.289,9.727 85.289,10.072L85.289,18.754C85.289,19.099 85.009,19.379 84.664,19.379L83.437,19.379L83.437,11.767C83.428,11.382 83.217,11.218 82.85,11.226L70.889,11.226Z" style="fill:white;"/>
                        </g>
                    </g>
                </g>
            </g>
        </g>
    </g>
</svg>
