<?xml version="1.0" encoding="UTF-8" standalone="no"?>
<!DOCTYPE svg PUBLIC "-//W3C//DTD SVG 1.1//EN" "http://www.w3.org/Graphics/SVG/1.1/DTD/svg11.dtd">
<svg width="100%" height="100%" viewBox="0 0 29 28" version="1.1" xmlns="http://www.w3.org/2000/svg" xmlns:xlink="http://www.w3.org/1999/xlink" xml:space="preserve" xmlns:serif="http://www.serif.com/" style="fill-rule:evenodd;clip-rule:evenodd;stroke-linejoin:round;stroke-miterlimit:2;">
    <g transform="matrix(1,0,0,1,-0.329464,-191.654)">
        <g id="LogOut_icon" transform="matrix(1,0,0,1,0.308355,191.636)">
            <rect x="0.021" y="0.018" width="28.004" height="27.983" style="fill:none;"/>
            <g transform="matrix(1,0,0,1,0.0211084,0.0180717)">
                <g>
                    <g>
                        <g>
                            <path id="e3p8D1puBC" d="M2,14C2,7.38 7.38,2 14,2C20.62,2 26,7.38 26,14C26,20.62 20.62,26 14,26C7.38,26 2,20.62 2,14Z" style="fill:rgb(124,148,100);fill-rule:nonzero;"/>
                        </g>
                    </g>
                    <g transform="matrix(1,0,0,1,-0.0211084,-0.0180717)">
                        <g transform="matrix(0.786827,0,0,0.786827,-43.4917,-21.1084)">
                            <path d="M77.957,41.499L77.957,37.326C78.081,37.201 78.281,37.201 78.405,37.327L85.373,44.399C85.439,44.466 85.469,44.556 85.465,44.645C85.469,44.733 85.439,44.823 85.373,44.89L78.405,51.963C78.281,52.088 78.081,52.088 77.957,51.963L77.957,47.78L70.901,47.78C70.035,47.78 69.331,47.076 69.331,46.21L69.331,43.069C69.331,42.203 70.035,41.499 70.901,41.499L77.957,41.499Z" style="fill:white;"/>
                        </g>
                        <g transform="matrix(1,0,0,1,-62.1998,-31.4839)">
                            <path d="M70.158,38.038C70.2,38.03 70.243,38.026 70.287,38.026L73.4,38.026C73.788,38.026 74.102,38.341 74.102,38.728L74.102,40.131C74.102,40.518 73.788,40.833 73.4,40.833L71.509,40.833L71.509,50.123L73.4,50.123C73.788,50.123 74.102,50.437 74.102,50.824L74.102,52.227C74.102,52.614 73.788,52.929 73.4,52.929L70.287,52.929C70.26,52.929 70.234,52.927 70.208,52.924L69.405,52.924C69.018,52.924 68.703,52.61 68.703,52.223L68.703,38.74C68.703,38.353 69.018,38.038 69.405,38.038L70.158,38.038Z" style="fill:white;"/>
                        </g>
                    </g>
                </g>
            </g>
        </g>
    </g>
</svg>
