<?xml version="1.0" encoding="UTF-8" standalone="no"?>
<!DOCTYPE svg PUBLIC "-//W3C//DTD SVG 1.1//EN" "http://www.w3.org/Graphics/SVG/1.1/DTD/svg11.dtd">
<svg width="100%" height="100%" viewBox="0 0 29 28" version="1.1" xmlns="http://www.w3.org/2000/svg" xmlns:xlink="http://www.w3.org/1999/xlink" xml:space="preserve" xmlns:serif="http://www.serif.com/" style="fill-rule:evenodd;clip-rule:evenodd;stroke-linejoin:round;stroke-miterlimit:2;">
    <g transform="matrix(1,0,0,1,-0.587141,-161.604)">
        <g id="Recipes_icon" transform="matrix(1,0,0,1,0.566033,161.586)">
            <rect x="0.021" y="0.018" width="28.004" height="27.983" style="fill:none;"/>
            <g transform="matrix(1,0,0,1,0.0211084,0.0180717)">
                <g>
                    <g>
                        <g>
                            <path id="e3p8D1puBC" d="M2,14C2,7.38 7.38,2 14,2C20.62,2 26,7.38 26,14C26,20.62 20.62,26 14,26C7.38,26 2,20.62 2,14Z" style="fill:rgb(124,148,100);fill-rule:nonzero;"/>
                        </g>
                    </g>
                    <g>
                        <g transform="matrix(-0.759801,-0.759801,-0.718244,0.718244,59.8055,-10.9221)">
                            <path d="M12.462,47.926C11.205,47.578 10.232,46.43 10.006,44.997C9.992,44.941 9.984,44.884 9.984,44.824L9.984,40.519C9.984,40.135 10.296,39.824 10.679,39.824C11.063,39.824 11.374,40.135 11.374,40.519C11.374,40.519 11.37,44.916 11.361,44.96C11.374,45.281 11.639,45.537 11.963,45.537C12.246,45.537 12.484,45.341 12.548,45.077L12.548,41.52C12.548,41.136 12.86,40.824 13.244,40.824C13.628,40.824 13.94,41.136 13.94,41.52L13.94,45.034C13.988,45.319 14.236,45.537 14.535,45.537C14.867,45.537 15.137,45.267 15.137,44.934L15.137,44.931L15.142,44.931C15.136,44.895 15.133,40.522 15.133,40.522C15.133,40.137 15.446,39.824 15.831,39.824C16.216,39.824 16.529,40.137 16.529,40.522L16.529,44.821C16.529,44.859 16.526,44.895 16.52,44.931L16.525,44.931C16.318,46.404 15.322,47.589 14.033,47.933L14.033,58.435C14.033,58.869 13.681,59.221 13.248,59.221C12.814,59.221 12.462,58.869 12.462,58.435L12.462,47.926Z" style="fill:white;"/>
                        </g>
                        <g transform="matrix(0.824193,-0.824193,0.75077,0.75077,-34.7657,-12.0544)">
                            <path d="M12.462,58.435C12.462,58.435 12.439,52.277 12.504,52.014C11.164,48.417 10.766,44.079 12.391,40.696C12.597,40.267 12.86,39.999 13.244,39.999C13.628,39.999 13.94,40.311 13.94,40.696L13.896,51.97C13.943,52.256 14.033,58.435 14.033,58.435C14.033,58.869 13.681,59.221 13.248,59.221C12.814,59.221 12.462,58.869 12.462,58.435Z" style="fill:white;"/>
                        </g>
                    </g>
                </g>
            </g>
        </g>
    </g>
</svg>
