<?xml version="1.0" encoding="UTF-8" standalone="no"?>
<!DOCTYPE svg PUBLIC "-//W3C//DTD SVG 1.1//EN" "http://www.w3.org/Graphics/SVG/1.1/DTD/svg11.dtd">
<svg width="100%" height="100%" viewBox="0 0 29 28" version="1.1" xmlns="http://www.w3.org/2000/svg" xmlns:xlink="http://www.w3.org/1999/xlink" xml:space="preserve" xmlns:serif="http://www.serif.com/" style="fill-rule:evenodd;clip-rule:evenodd;stroke-linejoin:round;stroke-miterlimit:2;">
    <g transform="matrix(1,0,0,1,-33.4438,0)">
        <g id="Collapse2_icon" transform="matrix(1,0,0,1,33.4226,-0.0180717)">
            <rect x="0.021" y="0.018" width="28.004" height="27.983" style="fill:none;"/>
            <g transform="matrix(1,0,0,1,0.0211084,0.0180717)">
                <g>
                    <g>
                        <g>
                            <path id="e3p8D1puBC" d="M2,14C2,7.38 7.38,2 14,2C20.62,2 26,7.38 26,14C26,20.62 20.62,26 14,26C7.38,26 2,20.62 2,14Z" style="fill:rgb(124,148,100);fill-rule:nonzero;"/>
                        </g>
                    </g>
                    <g transform="matrix(1,0,0,1,-0.0211084,-0.0180717)">
                        <g transform="matrix(1,0,0,1,-97.9255,-31.4839)">
                            <path d="M116.904,45.424L111.825,40.244C111.702,40.118 111.702,39.914 111.825,39.788L113.474,38.106C113.597,37.981 113.797,37.981 113.921,38.106L120.889,45.179C120.955,45.246 120.986,45.336 120.981,45.424C120.986,45.513 120.955,45.603 120.889,45.67L113.921,52.742C113.797,52.868 113.597,52.868 113.474,52.742L111.825,51.061C111.702,50.935 111.702,50.731 111.825,50.605L116.904,45.424Z" style="fill:white;"/>
                        </g>
                        <g transform="matrix(1,0,0,1,-97.9255,-31.4839)">
                            <path d="M110.244,45.424L105.166,40.244C105.042,40.118 105.042,39.914 105.166,39.788L106.814,38.106C106.938,37.981 107.138,37.981 107.261,38.106L114.229,45.179C114.295,45.246 114.326,45.336 114.321,45.424C114.326,45.513 114.295,45.603 114.229,45.67L107.261,52.742C107.138,52.868 106.938,52.868 106.814,52.742L105.166,51.061C105.042,50.935 105.042,50.731 105.166,50.605L110.244,45.424Z" style="fill:white;"/>
                        </g>
                    </g>
                </g>
            </g>
        </g>
    </g>
</svg>
