<?xml version="1.0" encoding="UTF-8" standalone="no"?>
<!DOCTYPE svg PUBLIC "-//W3C//DTD SVG 1.1//EN" "http://www.w3.org/Graphics/SVG/1.1/DTD/svg11.dtd">
<svg width="100%" height="100%" viewBox="0 0 29 28" version="1.1" xmlns="http://www.w3.org/2000/svg" xmlns:xlink="http://www.w3.org/1999/xlink" xml:space="preserve" xmlns:serif="http://www.serif.com/" style="fill-rule:evenodd;clip-rule:evenodd;stroke-linejoin:round;stroke-miterlimit:2;">
    <g transform="matrix(1,0,0,1,-33.2562,-66.6055)">
        <g id="Music_icon" transform="matrix(1,0,0,1,33.2351,66.5874)">
            <rect x="0.021" y="0.018" width="28.004" height="27.983" style="fill:none;"/>
            <g transform="matrix(1,0,0,1,0.0211084,0.0180717)">
                <g>
                    <g>
                        <g>
                            <g>
                                <path id="e3p8D1puBC" d="M2,14C2,7.38 7.38,2 14,2C20.62,2 26,7.38 26,14C26,20.62 20.62,26 14,26C7.38,26 2,20.62 2,14Z" style="fill:rgb(124,148,100);fill-rule:nonzero;"/>
                            </g>
                        </g>
                    </g>
                    <g transform="matrix(0.887911,0,0,1,1.56463,-0.00975779)">
                        <g transform="matrix(0.787194,-0.127493,1.33764e-17,1.14889,-22.9787,-75.2775)">
                            <rect x="40.434" y="76.602" width="14.261" height="3.008" style="fill:white;"/>
                        </g>
                        <g transform="matrix(0.69014,0,0,1.22556,-19.2212,-87.7229)">
                            <rect x="40.676" y="79.797" width="1.907" height="8.246" style="fill:white;"/>
                        </g>
                        <g transform="matrix(0.69014,0,0,1.22556,-9.31101,-88.9358)">
                            <rect x="40.676" y="79.797" width="1.907" height="8.246" style="fill:white;"/>
                        </g>
                        <g transform="matrix(0.842338,0,0,0.747921,-32.0866,-43.6169)">
                            <circle cx="47.486" cy="85.231" r="2.674" style="fill:white;"/>
                        </g>
                        <g transform="matrix(0.842338,0,0,0.747921,-22.1747,-44.8633)">
                            <circle cx="47.486" cy="85.231" r="2.674" style="fill:white;"/>
                        </g>
                    </g>
                </g>
            </g>
        </g>
    </g>
</svg>
